# xmcd
#
# Track frame offsets:
#	150
#	19194
#	37400
#	51813
#	70277
#	87315
#	103134
#	117465
#	129627
#	144424
#	156460
#	172099
#	183849
#	200830
#	219865
#	232283
#	248361
#
# Disc length: 3521 seconds
#
# Revision: 1
# Processed by: cddbd v1.5.1PL0 Copyright (c) Steve Scherf et al.
# Submitted via: CDex 1.50Beta5
#
DISCID=040dbf11
DTITLE=かぐや姫 - Best 35
DYEAR=1900
DGENRE=Folk
TTITLE0=妹
TTITLE1=わかれ道
TTITLE2=離婚歴三回
TTITLE3=そんな人ちがい
TTITLE4=雨に消えたほほえみ
TTITLE5=置手紙
TTITLE6=おまえのサンダル
TTITLE7=うちのお父さん
TTITLE8=なごり雪
TTITLE9=ひとりきり
TTITLE10=加茂の流れに
TTITLE11=黄色い船
TTITLE12=アビーロードの街
TTITLE13=遥かなる想い
TTITLE14=南風知らん顔
TTITLE15=けれど生きている
TTITLE16=あの人の手紙
EXTD=
EXTT0=
EXTT1=
EXTT2=
EXTT3=
EXTT4=
EXTT5=
EXTT6=
EXTT7=
EXTT8=
EXTT9=
EXTT10=
EXTT11=
EXTT12=
EXTT13=
EXTT14=
EXTT15=
EXTT16=
PLAYORDER=
